<svg width="202px" height="202px" viewBox="221 13 202 202" version="1.1" xmlns="http://www.w3.org/2000/svg" xmlns:xlink="http://www.w3.org/1999/xlink">
    <circle id="Oval" stroke="#979797" stroke-width="1" fill="#E67E22" fill-rule="evenodd" cx="322" cy="114" r="100"></circle>
    <g id="Group" stroke="none" stroke-width="1" fill="none" fill-rule="evenodd" transform="translate(275.000000, 71.000000)">
        <path d="M16.5,32 C16.5,34.933348 16.16667,37.2166585 15.5,38.85 C14.83333,40.4833415 13.566676,41.933327 11.7,43.2 C13.566676,44.466673 14.83333,45.9499915 15.5,47.65 C16.16667,49.3500085 16.5,51.666652 16.5,54.6 L16.5,70 C16.5,73.200016 16.933329,75.199996 17.8,76 C18.333336,76.400002 19.233327,76.7166655 20.5,76.95 C21.766673,77.1833345 23.533322,77.3 25.8,77.3 L25.8,86 L21.3,86 C15.899973,86 12.0500115,84.833345 9.75,82.5 C7.4499885,80.166655 6.3,76.200028 6.3,70.6 L6.3,54.8 C6.3,52.399988 5.866671,50.6166725 5,49.45 C4.133329,48.2833275 2.733343,47.433336 0.8,46.9 L0.8,39.2 C4.466685,38.133328 6.3,35.60002 6.3,31.6 L6.3,14.7 C6.3,9.566641 7.4833215,5.866678 9.85,3.6 C12.2166785,1.333322 16.06664,0.2 21.4,0.2 L25.8,0.2 L25.8,9 C23.533322,9.066667 21.766673,9.2166655 20.5,9.45 C19.233327,9.6833345 18.333336,9.999998 17.8,10.4 C16.933329,11.200004 16.5,13.066652 16.5,16 L16.5,32 Z" id="{" fill="#FFFFFF"></path>
        <path d="M77.5,54.3 C77.5,51.366652 77.8499965,49.066675 78.55,47.4 C79.2500035,45.733325 80.499991,44.266673 82.3,43 C80.499991,41.733327 79.2500035,40.266675 78.55,38.6 C77.8499965,36.933325 77.5,34.633348 77.5,31.7 L77.5,16.3 C77.5,13.166651 77.066671,11.200004 76.2,10.4 C75.199995,9.466662 72.566688,9 68.3,9 L68.3,0.2 L72.6,0.2 C78.066694,0.2 81.966655,1.3833215 84.3,3.75 C86.633345,6.1166785 87.8,10.099972 87.8,15.7 L87.8,31.5 C87.8,35.900022 89.633315,38.533329 93.3,39.4 L93.3,47.1 C89.633315,48.100005 87.8,50.633313 87.8,54.7 L87.8,71.6 C87.8,76.733359 86.6166785,80.4166555 84.25,82.65 C81.8833215,84.8833445 78.000027,86 72.6,86 L68.3,86 L68.3,77.3 C70.500011,77.233333 72.2499935,77.066668 73.55,76.8 C74.8500065,76.533332 75.766664,76.233335 76.3,75.9 C77.100004,75.099996 77.5,73.233348 77.5,70.3 L77.5,54.3 Z" id="}" fill="#FFFFFF"></path>
    </g>
</svg>
